<svg xmlns="http://www.w3.org/2000/svg" viewBox="0 0 640 360" role="img" aria-labelledby="title desc">
  <title id="title">Structural grid preview</title>
  <desc id="desc">Illustrated structural grid with beams and columns.</desc>
  <defs>
    <linearGradient id="bg" x1="0" y1="0" x2="1" y2="1">
      <stop offset="0%" stop-color="#112f39" />
      <stop offset="100%" stop-color="#152a33" />
    </linearGradient>
  </defs>
  <rect width="640" height="360" rx="24" fill="url(#bg)" />
  <rect x="36" y="34" width="568" height="292" rx="16" fill="#0b171c" stroke="#486f7c" stroke-opacity="0.68" />
  <path d="M76 74h488M76 126h488M76 178h488M76 230h488M76 282h488" stroke="#425f68" stroke-opacity="0.5" />
  <path d="M120 58v248M200 58v248M280 58v248M360 58v248M440 58v248M520 58v248" stroke="#425f68" stroke-opacity="0.5" />
  <g fill="#79edcf" fill-opacity="0.84" stroke="#09232a" stroke-width="2">
    <circle cx="120" cy="74" r="10" /><circle cx="200" cy="74" r="10" /><circle cx="280" cy="74" r="10" /><circle cx="360" cy="74" r="10" /><circle cx="440" cy="74" r="10" /><circle cx="520" cy="74" r="10" />
    <circle cx="120" cy="126" r="10" /><circle cx="200" cy="126" r="10" /><circle cx="280" cy="126" r="10" /><circle cx="360" cy="126" r="10" /><circle cx="440" cy="126" r="10" /><circle cx="520" cy="126" r="10" />
    <circle cx="120" cy="178" r="10" /><circle cx="200" cy="178" r="10" /><circle cx="280" cy="178" r="10" /><circle cx="360" cy="178" r="10" /><circle cx="440" cy="178" r="10" /><circle cx="520" cy="178" r="10" />
    <circle cx="120" cy="230" r="10" /><circle cx="200" cy="230" r="10" /><circle cx="280" cy="230" r="10" /><circle cx="360" cy="230" r="10" /><circle cx="440" cy="230" r="10" /><circle cx="520" cy="230" r="10" />
    <circle cx="120" cy="282" r="10" /><circle cx="200" cy="282" r="10" /><circle cx="280" cy="282" r="10" /><circle cx="360" cy="282" r="10" /><circle cx="440" cy="282" r="10" /><circle cx="520" cy="282" r="10" />
  </g>
  <rect x="80" y="58" width="400" height="172" fill="none" stroke="#69b3ff" stroke-width="4" stroke-opacity="0.62" />
  <text x="56" y="338" fill="#b8dce7" font-size="20" font-family="Manrope, Arial, sans-serif" font-weight="700">Structural Grid Preview</text>
</svg>
