<svg xmlns="http://www.w3.org/2000/svg" viewBox="0 0 640 360" role="img" aria-labelledby="title desc">
  <title id="title">Apartment layout preview</title>
  <desc id="desc">Illustrated apartment floor plan card.</desc>
  <defs>
    <linearGradient id="bg" x1="0" y1="0" x2="1" y2="1">
      <stop offset="0%" stop-color="#0f3340" />
      <stop offset="100%" stop-color="#112830" />
    </linearGradient>
  </defs>
  <rect width="640" height="360" rx="24" fill="url(#bg)" />
  <rect x="32" y="32" width="576" height="296" rx="14" fill="#0a171d" stroke="#3f7082" stroke-opacity="0.7" />
  <path d="M128 32v296M256 32v296M384 32v296M512 32v296M32 106h576M32 180h576M32 254h576" stroke="#315462" stroke-opacity="0.4" />
  <rect x="60" y="56" width="146" height="112" rx="10" fill="#17373d" stroke="#66d8c0" stroke-opacity="0.7" />
  <rect x="224" y="56" width="170" height="150" rx="10" fill="#123540" stroke="#63a9ff" stroke-opacity="0.75" />
  <rect x="412" y="56" width="164" height="84" rx="10" fill="#1a3634" stroke="#61e4c5" stroke-opacity="0.68" />
  <rect x="60" y="188" width="146" height="116" rx="10" fill="#1f3836" stroke="#72efcf" stroke-opacity="0.68" />
  <rect x="224" y="224" width="182" height="80" rx="10" fill="#253a43" stroke="#67b4ff" stroke-opacity="0.72" />
  <rect x="424" y="158" width="152" height="146" rx="10" fill="#143138" stroke="#5edec1" stroke-opacity="0.72" />
  <text x="56" y="338" fill="#b8dce7" font-size="20" font-family="Manrope, Arial, sans-serif" font-weight="700">Apartment Layout Preview</text>
</svg>
